<svg width="20" height="20" viewBox="0 0 20 20" fill="none" xmlns="http://www.w3.org/2000/svg">
<path fill-rule="evenodd" clip-rule="evenodd" d="M10.0083 0.166626C4.47396 0.166626 0 4.67357 0 10.2493C0 14.7062 2.86662 18.4789 6.84338 19.8142C7.34058 19.9146 7.5227 19.5973 7.5227 19.3303C7.5227 19.0966 7.50631 18.2954 7.50631 17.4606C4.72225 18.0616 4.14249 16.2587 4.14249 16.2587C3.69508 15.0901 3.03215 14.7898 3.03215 14.7898C2.12092 14.1721 3.09852 14.1721 3.09852 14.1721C4.1093 14.2389 4.63969 15.2071 4.63969 15.2071C5.53432 16.7427 6.97592 16.3088 7.55588 16.0417C7.63865 15.3907 7.90394 14.94 8.18563 14.6896C5.96514 14.4559 3.62891 13.5879 3.62891 9.71499C3.62891 8.61325 4.02634 7.71186 4.65608 7.01082C4.55672 6.76048 4.20866 5.72532 4.75564 4.33985C4.75564 4.33985 5.60069 4.07271 7.5061 5.3748C8.32188 5.1541 9.16317 5.04183 10.0083 5.04088C10.8533 5.04088 11.7148 5.15786 12.5102 5.3748C14.4159 4.07271 15.2609 4.33985 15.2609 4.33985C15.8079 5.72532 15.4596 6.76048 15.3603 7.01082C16.0066 7.71186 16.3876 8.61325 16.3876 9.71499C16.3876 13.5879 14.0514 14.4391 11.8143 14.6896C12.179 15.0067 12.4936 15.6076 12.4936 16.5592C12.4936 17.9113 12.4773 18.9964 12.4773 19.3301C12.4773 19.5973 12.6596 19.9146 13.1566 19.8144C17.1333 18.4787 20 14.7062 20 10.2493C20.0163 4.67357 15.526 0.166626 10.0083 0.166626Z" fill="black"/>
</svg>
