<svg width="18" height="18" viewBox="0 0 18 18" fill="none" xmlns="http://www.w3.org/2000/svg">
<path fill-rule="evenodd" clip-rule="evenodd" d="M5.72892 5.72893C6.59647 4.86138 7.77311 4.374 9 4.374C10.2269 4.374 11.4035 4.86138 12.2711 5.72893C13.1386 6.59647 13.626 7.77311 13.626 9C13.626 10.2269 13.1386 11.4035 12.2711 12.2711C11.4035 13.1386 10.2269 13.626 9 13.626C7.77311 13.626 6.59647 13.1386 5.72892 12.2711C4.86138 11.4035 4.374 10.2269 4.374 9C4.374 7.77311 4.86138 6.59647 5.72892 5.72893ZM7.8508 11.7744C8.21514 11.9253 8.60564 12.003 9 12.003C9.79644 12.003 10.5603 11.6866 11.1234 11.1234C11.6866 10.5603 12.003 9.79645 12.003 9C12.003 8.20356 11.6866 7.43973 11.1234 6.87656C10.5603 6.31339 9.79644 5.997 9 5.997C8.60564 5.997 8.21514 6.07468 7.8508 6.22559C7.48646 6.37651 7.15541 6.59771 6.87656 6.87656C6.5977 7.15542 6.3765 7.48646 6.22559 7.8508C6.07467 8.21515 5.997 8.60564 5.997 9C5.997 9.39436 6.07467 9.78486 6.22559 10.1492C6.3765 10.5135 6.5977 10.8446 6.87656 11.1234C7.15541 11.4023 7.48646 11.6235 7.8508 11.7744Z" fill="black"/>
<path d="M14.6515 5.06322C14.8566 4.85815 14.9718 4.58002 14.9718 4.29C14.9718 3.99999 14.8566 3.72185 14.6515 3.51678C14.4464 3.31171 14.1683 3.1965 13.8783 3.1965C13.5883 3.1965 13.3101 3.31171 13.1051 3.51678C12.9 3.72185 12.7848 3.99999 12.7848 4.29C12.7848 4.58002 12.9 4.85815 13.1051 5.06322C13.3101 5.2683 13.5883 5.3835 13.8783 5.3835C14.1683 5.3835 14.4464 5.2683 14.6515 5.06322Z" fill="black"/>
<path fill-rule="evenodd" clip-rule="evenodd" d="M5.2896 0.0539999C6.2496 0.0102 6.5556 0 9 0C11.445 0 11.7504 0.0107999 12.7098 0.0539999C13.668 0.0978 14.3232 0.2508 14.8956 0.4722C15.4959 0.698315 16.0397 1.05253 16.4892 1.5102C16.947 1.95979 17.3012 2.50384 17.5272 3.1044C17.7498 3.6768 17.9022 4.3314 17.946 5.2896C17.9898 6.2496 18 6.5556 18 9C18 11.4444 17.9898 11.7504 17.946 12.7104C17.9022 13.6686 17.7498 14.3232 17.5278 14.8956C17.3017 15.4959 16.9475 16.0397 16.4898 16.4892C16.0398 16.9476 15.4956 17.3016 14.8956 17.5272C14.3232 17.7498 13.6686 17.9022 12.7104 17.946C11.7504 17.9898 11.4444 18 9 18C6.5556 18 6.2496 17.9898 5.2896 17.946C4.3314 17.9022 3.6768 17.7498 3.1044 17.5278C2.50411 17.3017 1.96029 16.9475 1.5108 16.4898C1.0524 16.0398 0.6984 15.4956 0.4728 14.8956C0.2502 14.3232 0.0978 13.6686 0.0539999 12.7104C0.0102 11.7504 0 11.445 0 9C0 6.555 0.0107999 6.2496 0.0539999 5.2902C0.0978 4.332 0.2508 3.6768 0.4722 3.1044C0.698315 2.5041 1.05253 1.96028 1.5102 1.5108C1.9602 1.0524 2.5044 0.6984 3.1044 0.4728C3.6768 0.2502 4.3314 0.0978 5.2896 0.0539999ZM12.6372 1.674C11.688 1.6308 11.403 1.6218 9 1.6218C6.597 1.6218 6.312 1.6308 5.3628 1.674C4.4856 1.7142 4.0092 1.8606 3.6918 1.9842C3.30085 2.12819 2.94716 2.35803 2.6568 2.6568C2.3424 2.9718 2.1468 3.2718 1.9842 3.6918C1.86 4.0092 1.7142 4.4856 1.674 5.3628C1.6308 6.312 1.6218 6.597 1.6218 9C1.6218 11.403 1.6308 11.688 1.674 12.6372C1.7142 13.5144 1.8606 13.9908 1.9842 14.3082C2.12828 14.6991 2.35811 15.0528 2.6568 15.3432C2.9472 15.6419 3.30087 15.8718 3.6918 16.0158C4.0092 16.14 4.4856 16.2858 5.3628 16.326C6.312 16.3692 6.5964 16.3782 9 16.3782C11.4036 16.3782 11.688 16.3692 12.6372 16.326C13.5144 16.2858 13.9908 16.1394 14.3082 16.0158C14.6992 15.8718 15.0528 15.642 15.3432 15.3432C15.6419 15.0528 15.8718 14.6991 16.0158 14.3082C16.14 13.9908 16.2858 13.5144 16.326 12.6372C16.3692 11.688 16.3782 11.403 16.3782 9C16.3782 6.597 16.3692 6.312 16.326 5.3628C16.2858 4.4856 16.1394 4.0092 16.0158 3.6918C15.8532 3.2718 15.6582 2.9718 15.3432 2.6568C15.0282 2.3424 14.7282 2.1468 14.3082 1.9842C13.9908 1.86 13.5144 1.7142 12.6372 1.674Z" fill="black"/>
</svg>
