<svg width="18" height="18" viewBox="0 0 18 18" fill="none" xmlns="http://www.w3.org/2000/svg">
<path fill-rule="evenodd" clip-rule="evenodd" d="M0 8.73006C0 3.71382 3.93003 6.10352e-05 9 6.10352e-05C14.07 6.10352e-05 18 3.71382 18 8.73006C18 13.7463 14.07 17.4601 9 17.4601C8.08934 17.4601 7.21566 17.3398 6.39477 17.1141C6.2352 17.0702 6.06551 17.0826 5.91408 17.1494L4.12771 17.938C3.66043 18.1442 3.13295 17.812 3.11729 17.3013L3.06828 15.7004C3.06225 15.5031 2.97351 15.3188 2.8265 15.1872C1.07532 13.6212 0 11.3539 0 8.73006ZM6.23929 7.08875L3.59554 11.2831C3.34183 11.6856 3.83661 12.1392 4.21564 11.8516L7.05546 9.69637C7.24756 9.55057 7.51302 9.5498 7.70593 9.69448L9.80869 11.2716C10.4396 11.7448 11.3402 11.5786 11.7608 10.9114L14.4045 6.71701C14.6582 6.31448 14.1634 5.86088 13.7843 6.14852L10.9445 8.30375C10.7524 8.44955 10.487 8.45032 10.2941 8.3056L8.19135 6.72857C7.56036 6.25535 6.65982 6.42149 6.23929 7.08875Z" fill="black"/>
</svg>
